<?xml version="1.0" encoding="utf-8" standalone="no"?>
<!DOCTYPE svg PUBLIC "-//W3C//DTD SVG 1.1//EN"
  "http://www.w3.org/Graphics/SVG/1.1/DTD/svg11.dtd">
<!-- Created with matplotlib (http://matplotlib.org/) -->
<svg height="288pt" version="1.1" viewBox="0 0 432 288" width="432pt" xmlns="http://www.w3.org/2000/svg" xmlns:xlink="http://www.w3.org/1999/xlink">
 <defs>
  <style type="text/css">
*{stroke-linecap:butt;stroke-linejoin:round;}
  </style>
 </defs>
 <g id="figure_1">
  <g id="patch_1">
   <path d="M 0 288 
L 432 288 
L 432 0 
L 0 0 
z
" style="fill:#f0f0f0;"/>
  </g>
  <g id="axes_1">
   <g id="patch_2">
    <path d="M 20.675 256.7 
L 421.2 256.7 
L 421.2 27.8 
L 20.675 27.8 
z
" style="fill:#f0f0f0;"/>
   </g>
   <g id="matplotlib.axis_1">
    <g id="xtick_1">
     <g id="line2d_1">
      <path clip-path="url(#p43d8513310)" d="M 38.880682 256.7 
L 38.880682 27.8 
" style="fill:none;stroke:#cbcbcb;"/>
     </g>
     <g id="line2d_2"/>
    </g>
    <g id="xtick_2">
     <g id="line2d_3">
      <path clip-path="url(#p43d8513310)" d="M 120.557137 256.7 
L 120.557137 27.8 
" style="fill:none;stroke:#cbcbcb;"/>
     </g>
     <g id="line2d_4"/>
    </g>
    <g id="xtick_3">
     <g id="line2d_5">
      <path clip-path="url(#p43d8513310)" d="M 202.233592 256.7 
L 202.233592 27.8 
" style="fill:none;stroke:#cbcbcb;"/>
     </g>
     <g id="line2d_6"/>
    </g>
    <g id="xtick_4">
     <g id="line2d_7">
      <path clip-path="url(#p43d8513310)" d="M 283.910047 256.7 
L 283.910047 27.8 
" style="fill:none;stroke:#cbcbcb;"/>
     </g>
     <g id="line2d_8"/>
    </g>
    <g id="xtick_5">
     <g id="line2d_9">
      <path clip-path="url(#p43d8513310)" d="M 365.586502 256.7 
L 365.586502 27.8 
" style="fill:none;stroke:#cbcbcb;"/>
     </g>
     <g id="line2d_10"/>
    </g>
    <g id="text_1">
     <!-- date -->
     <defs>
      <path d="M 45.40625 46.390625 
L 45.40625 75.984375 
L 54.390625 75.984375 
L 54.390625 0 
L 45.40625 0 
L 45.40625 8.203125 
Q 42.578125 3.328125 38.25 0.953125 
Q 33.9375 -1.421875 27.875 -1.421875 
Q 17.96875 -1.421875 11.734375 6.484375 
Q 5.515625 14.40625 5.515625 27.296875 
Q 5.515625 40.1875 11.734375 48.09375 
Q 17.96875 56 27.875 56 
Q 33.9375 56 38.25 53.625 
Q 42.578125 51.265625 45.40625 46.390625 
z
M 14.796875 27.296875 
Q 14.796875 17.390625 18.875 11.75 
Q 22.953125 6.109375 30.078125 6.109375 
Q 37.203125 6.109375 41.296875 11.75 
Q 45.40625 17.390625 45.40625 27.296875 
Q 45.40625 37.203125 41.296875 42.84375 
Q 37.203125 48.484375 30.078125 48.484375 
Q 22.953125 48.484375 18.875 42.84375 
Q 14.796875 37.203125 14.796875 27.296875 
z
" id="DejaVuSans-64"/>
      <path d="M 34.28125 27.484375 
Q 23.390625 27.484375 19.1875 25 
Q 14.984375 22.515625 14.984375 16.5 
Q 14.984375 11.71875 18.140625 8.90625 
Q 21.296875 6.109375 26.703125 6.109375 
Q 34.1875 6.109375 38.703125 11.40625 
Q 43.21875 16.703125 43.21875 25.484375 
L 43.21875 27.484375 
z
M 52.203125 31.203125 
L 52.203125 0 
L 43.21875 0 
L 43.21875 8.296875 
Q 40.140625 3.328125 35.546875 0.953125 
Q 30.953125 -1.421875 24.3125 -1.421875 
Q 15.921875 -1.421875 10.953125 3.296875 
Q 6 8.015625 6 15.921875 
Q 6 25.140625 12.171875 29.828125 
Q 18.359375 34.515625 30.609375 34.515625 
L 43.21875 34.515625 
L 43.21875 35.40625 
Q 43.21875 41.609375 39.140625 45 
Q 35.0625 48.390625 27.6875 48.390625 
Q 23 48.390625 18.546875 47.265625 
Q 14.109375 46.140625 10.015625 43.890625 
L 10.015625 52.203125 
Q 14.9375 54.109375 19.578125 55.046875 
Q 24.21875 56 28.609375 56 
Q 40.484375 56 46.34375 49.84375 
Q 52.203125 43.703125 52.203125 31.203125 
z
" id="DejaVuSans-61"/>
      <path d="M 18.3125 70.21875 
L 18.3125 54.6875 
L 36.8125 54.6875 
L 36.8125 47.703125 
L 18.3125 47.703125 
L 18.3125 18.015625 
Q 18.3125 11.328125 20.140625 9.421875 
Q 21.96875 7.515625 27.59375 7.515625 
L 36.8125 7.515625 
L 36.8125 0 
L 27.59375 0 
Q 17.1875 0 13.234375 3.875 
Q 9.28125 7.765625 9.28125 18.015625 
L 9.28125 47.703125 
L 2.6875 47.703125 
L 2.6875 54.6875 
L 9.28125 54.6875 
L 9.28125 70.21875 
z
" id="DejaVuSans-74"/>
      <path d="M 56.203125 29.59375 
L 56.203125 25.203125 
L 14.890625 25.203125 
Q 15.484375 15.921875 20.484375 11.0625 
Q 25.484375 6.203125 34.421875 6.203125 
Q 39.59375 6.203125 44.453125 7.46875 
Q 49.3125 8.734375 54.109375 11.28125 
L 54.109375 2.78125 
Q 49.265625 0.734375 44.1875 -0.34375 
Q 39.109375 -1.421875 33.890625 -1.421875 
Q 20.796875 -1.421875 13.15625 6.1875 
Q 5.515625 13.8125 5.515625 26.8125 
Q 5.515625 40.234375 12.765625 48.109375 
Q 20.015625 56 32.328125 56 
Q 43.359375 56 49.78125 48.890625 
Q 56.203125 41.796875 56.203125 29.59375 
z
M 47.21875 32.234375 
Q 47.125 39.59375 43.09375 43.984375 
Q 39.0625 48.390625 32.421875 48.390625 
Q 24.90625 48.390625 20.390625 44.140625 
Q 15.875 39.890625 15.1875 32.171875 
z
" id="DejaVuSans-65"/>
     </defs>
     <g transform="translate(207.4075 273.318125)scale(0.12 -0.12)">
      <use xlink:href="#DejaVuSans-64"/>
      <use x="63.476562" xlink:href="#DejaVuSans-61"/>
      <use x="124.755859" xlink:href="#DejaVuSans-74"/>
      <use x="163.964844" xlink:href="#DejaVuSans-65"/>
     </g>
    </g>
   </g>
   <g id="matplotlib.axis_2">
    <g id="ytick_1">
     <g id="line2d_11">
      <path clip-path="url(#p43d8513310)" d="M 20.675 246.295455 
L 421.2 246.295455 
" style="fill:none;stroke:#cbcbcb;"/>
     </g>
     <g id="line2d_12"/>
     <g id="text_2">
      <!-- 0 -->
      <defs>
       <path d="M 31.78125 66.40625 
Q 24.171875 66.40625 20.328125 58.90625 
Q 16.5 51.421875 16.5 36.375 
Q 16.5 21.390625 20.328125 13.890625 
Q 24.171875 6.390625 31.78125 6.390625 
Q 39.453125 6.390625 43.28125 13.890625 
Q 47.125 21.390625 47.125 36.375 
Q 47.125 51.421875 43.28125 58.90625 
Q 39.453125 66.40625 31.78125 66.40625 
z
M 31.78125 74.21875 
Q 44.046875 74.21875 50.515625 64.515625 
Q 56.984375 54.828125 56.984375 36.375 
Q 56.984375 17.96875 50.515625 8.265625 
Q 44.046875 -1.421875 31.78125 -1.421875 
Q 19.53125 -1.421875 13.0625 8.265625 
Q 6.59375 17.96875 6.59375 36.375 
Q 6.59375 54.828125 13.0625 64.515625 
Q 19.53125 74.21875 31.78125 74.21875 
z
" id="DejaVuSans-30"/>
      </defs>
      <g transform="translate(10.8125 250.094673)scale(0.1 -0.1)">
       <use xlink:href="#DejaVuSans-30"/>
      </g>
     </g>
    </g>
    <g id="ytick_2">
     <g id="line2d_13">
      <path clip-path="url(#p43d8513310)" d="M 20.675 215.23711 
L 421.2 215.23711 
" style="fill:none;stroke:#cbcbcb;"/>
     </g>
     <g id="line2d_14"/>
     <g id="text_3">
      <!-- 1 -->
      <defs>
       <path d="M 12.40625 8.296875 
L 28.515625 8.296875 
L 28.515625 63.921875 
L 10.984375 60.40625 
L 10.984375 69.390625 
L 28.421875 72.90625 
L 38.28125 72.90625 
L 38.28125 8.296875 
L 54.390625 8.296875 
L 54.390625 0 
L 12.40625 0 
z
" id="DejaVuSans-31"/>
      </defs>
      <g transform="translate(10.8125 219.036329)scale(0.1 -0.1)">
       <use xlink:href="#DejaVuSans-31"/>
      </g>
     </g>
    </g>
    <g id="ytick_3">
     <g id="line2d_15">
      <path clip-path="url(#p43d8513310)" d="M 20.675 184.178765 
L 421.2 184.178765 
" style="fill:none;stroke:#cbcbcb;"/>
     </g>
     <g id="line2d_16"/>
     <g id="text_4">
      <!-- 2 -->
      <defs>
       <path d="M 19.1875 8.296875 
L 53.609375 8.296875 
L 53.609375 0 
L 7.328125 0 
L 7.328125 8.296875 
Q 12.9375 14.109375 22.625 23.890625 
Q 32.328125 33.6875 34.8125 36.53125 
Q 39.546875 41.84375 41.421875 45.53125 
Q 43.3125 49.21875 43.3125 52.78125 
Q 43.3125 58.59375 39.234375 62.25 
Q 35.15625 65.921875 28.609375 65.921875 
Q 23.96875 65.921875 18.8125 64.3125 
Q 13.671875 62.703125 7.8125 59.421875 
L 7.8125 69.390625 
Q 13.765625 71.78125 18.9375 73 
Q 24.125 74.21875 28.421875 74.21875 
Q 39.75 74.21875 46.484375 68.546875 
Q 53.21875 62.890625 53.21875 53.421875 
Q 53.21875 48.921875 51.53125 44.890625 
Q 49.859375 40.875 45.40625 35.40625 
Q 44.1875 33.984375 37.640625 27.21875 
Q 31.109375 20.453125 19.1875 8.296875 
z
" id="DejaVuSans-32"/>
      </defs>
      <g transform="translate(10.8125 187.977984)scale(0.1 -0.1)">
       <use xlink:href="#DejaVuSans-32"/>
      </g>
     </g>
    </g>
    <g id="ytick_4">
     <g id="line2d_17">
      <path clip-path="url(#p43d8513310)" d="M 20.675 153.120421 
L 421.2 153.120421 
" style="fill:none;stroke:#cbcbcb;"/>
     </g>
     <g id="line2d_18"/>
     <g id="text_5">
      <!-- 3 -->
      <defs>
       <path d="M 40.578125 39.3125 
Q 47.65625 37.796875 51.625 33 
Q 55.609375 28.21875 55.609375 21.1875 
Q 55.609375 10.40625 48.1875 4.484375 
Q 40.765625 -1.421875 27.09375 -1.421875 
Q 22.515625 -1.421875 17.65625 -0.515625 
Q 12.796875 0.390625 7.625 2.203125 
L 7.625 11.71875 
Q 11.71875 9.328125 16.59375 8.109375 
Q 21.484375 6.890625 26.8125 6.890625 
Q 36.078125 6.890625 40.9375 10.546875 
Q 45.796875 14.203125 45.796875 21.1875 
Q 45.796875 27.640625 41.28125 31.265625 
Q 36.765625 34.90625 28.71875 34.90625 
L 20.21875 34.90625 
L 20.21875 43.015625 
L 29.109375 43.015625 
Q 36.375 43.015625 40.234375 45.921875 
Q 44.09375 48.828125 44.09375 54.296875 
Q 44.09375 59.90625 40.109375 62.90625 
Q 36.140625 65.921875 28.71875 65.921875 
Q 24.65625 65.921875 20.015625 65.03125 
Q 15.375 64.15625 9.8125 62.3125 
L 9.8125 71.09375 
Q 15.4375 72.65625 20.34375 73.4375 
Q 25.25 74.21875 29.59375 74.21875 
Q 40.828125 74.21875 47.359375 69.109375 
Q 53.90625 64.015625 53.90625 55.328125 
Q 53.90625 49.265625 50.4375 45.09375 
Q 46.96875 40.921875 40.578125 39.3125 
z
" id="DejaVuSans-33"/>
      </defs>
      <g transform="translate(10.8125 156.919639)scale(0.1 -0.1)">
       <use xlink:href="#DejaVuSans-33"/>
      </g>
     </g>
    </g>
    <g id="ytick_5">
     <g id="line2d_19">
      <path clip-path="url(#p43d8513310)" d="M 20.675 122.062076 
L 421.2 122.062076 
" style="fill:none;stroke:#cbcbcb;"/>
     </g>
     <g id="line2d_20"/>
     <g id="text_6">
      <!-- 4 -->
      <defs>
       <path d="M 37.796875 64.3125 
L 12.890625 25.390625 
L 37.796875 25.390625 
z
M 35.203125 72.90625 
L 47.609375 72.90625 
L 47.609375 25.390625 
L 58.015625 25.390625 
L 58.015625 17.1875 
L 47.609375 17.1875 
L 47.609375 0 
L 37.796875 0 
L 37.796875 17.1875 
L 4.890625 17.1875 
L 4.890625 26.703125 
z
" id="DejaVuSans-34"/>
      </defs>
      <g transform="translate(10.8125 125.861295)scale(0.1 -0.1)">
       <use xlink:href="#DejaVuSans-34"/>
      </g>
     </g>
    </g>
    <g id="ytick_6">
     <g id="line2d_21">
      <path clip-path="url(#p43d8513310)" d="M 20.675 91.003731 
L 421.2 91.003731 
" style="fill:none;stroke:#cbcbcb;"/>
     </g>
     <g id="line2d_22"/>
     <g id="text_7">
      <!-- 5 -->
      <defs>
       <path d="M 10.796875 72.90625 
L 49.515625 72.90625 
L 49.515625 64.59375 
L 19.828125 64.59375 
L 19.828125 46.734375 
Q 21.96875 47.46875 24.109375 47.828125 
Q 26.265625 48.1875 28.421875 48.1875 
Q 40.625 48.1875 47.75 41.5 
Q 54.890625 34.8125 54.890625 23.390625 
Q 54.890625 11.625 47.5625 5.09375 
Q 40.234375 -1.421875 26.90625 -1.421875 
Q 22.3125 -1.421875 17.546875 -0.640625 
Q 12.796875 0.140625 7.71875 1.703125 
L 7.71875 11.625 
Q 12.109375 9.234375 16.796875 8.0625 
Q 21.484375 6.890625 26.703125 6.890625 
Q 35.15625 6.890625 40.078125 11.328125 
Q 45.015625 15.765625 45.015625 23.390625 
Q 45.015625 31 40.078125 35.4375 
Q 35.15625 39.890625 26.703125 39.890625 
Q 22.75 39.890625 18.8125 39.015625 
Q 14.890625 38.140625 10.796875 36.28125 
z
" id="DejaVuSans-35"/>
      </defs>
      <g transform="translate(10.8125 94.80295)scale(0.1 -0.1)">
       <use xlink:href="#DejaVuSans-35"/>
      </g>
     </g>
    </g>
    <g id="ytick_7">
     <g id="line2d_23">
      <path clip-path="url(#p43d8513310)" d="M 20.675 59.945387 
L 421.2 59.945387 
" style="fill:none;stroke:#cbcbcb;"/>
     </g>
     <g id="line2d_24"/>
     <g id="text_8">
      <!-- 6 -->
      <defs>
       <path d="M 33.015625 40.375 
Q 26.375 40.375 22.484375 35.828125 
Q 18.609375 31.296875 18.609375 23.390625 
Q 18.609375 15.53125 22.484375 10.953125 
Q 26.375 6.390625 33.015625 6.390625 
Q 39.65625 6.390625 43.53125 10.953125 
Q 47.40625 15.53125 47.40625 23.390625 
Q 47.40625 31.296875 43.53125 35.828125 
Q 39.65625 40.375 33.015625 40.375 
z
M 52.59375 71.296875 
L 52.59375 62.3125 
Q 48.875 64.0625 45.09375 64.984375 
Q 41.3125 65.921875 37.59375 65.921875 
Q 27.828125 65.921875 22.671875 59.328125 
Q 17.53125 52.734375 16.796875 39.40625 
Q 19.671875 43.65625 24.015625 45.921875 
Q 28.375 48.1875 33.59375 48.1875 
Q 44.578125 48.1875 50.953125 41.515625 
Q 57.328125 34.859375 57.328125 23.390625 
Q 57.328125 12.15625 50.6875 5.359375 
Q 44.046875 -1.421875 33.015625 -1.421875 
Q 20.359375 -1.421875 13.671875 8.265625 
Q 6.984375 17.96875 6.984375 36.375 
Q 6.984375 53.65625 15.1875 63.9375 
Q 23.390625 74.21875 37.203125 74.21875 
Q 40.921875 74.21875 44.703125 73.484375 
Q 48.484375 72.75 52.59375 71.296875 
z
" id="DejaVuSans-36"/>
      </defs>
      <g transform="translate(10.8125 63.744605)scale(0.1 -0.1)">
       <use xlink:href="#DejaVuSans-36"/>
      </g>
     </g>
    </g>
    <g id="ytick_8">
     <g id="line2d_25">
      <path clip-path="url(#p43d8513310)" d="M 20.675 28.887042 
L 421.2 28.887042 
" style="fill:none;stroke:#cbcbcb;"/>
     </g>
     <g id="line2d_26"/>
     <g id="text_9">
      <!-- 7 -->
      <defs>
       <path d="M 8.203125 72.90625 
L 55.078125 72.90625 
L 55.078125 68.703125 
L 28.609375 0 
L 18.3125 0 
L 43.21875 64.59375 
L 8.203125 64.59375 
z
" id="DejaVuSans-37"/>
      </defs>
      <g transform="translate(10.8125 32.686261)scale(0.1 -0.1)">
       <use xlink:href="#DejaVuSans-37"/>
      </g>
     </g>
    </g>
   </g>
   <g id="line2d_27">
    <path clip-path="url(#p43d8513310)" d="M 38.880682 224.554613 
L 39.044035 246.295455 
L 39.207388 241.636703 
L 39.370741 190.701018 
M 39.697446 245.674288 
L 39.860799 244.742537 
L 40.187505 179.520014 
L 40.350858 208.404274 
M 40.677564 175.482429 
L 40.840917 179.520014 
L 41.00427 243.810787 
L 41.330975 243.810787 
L 41.494328 246.295455 
L 41.821034 239.773202 
L 42.14774 246.295455 
L 42.311093 246.295455 
L 42.637799 245.053121 
L 42.801152 246.295455 
L 42.964505 245.674288 
L 43.127857 245.984871 
M 43.454563 242.568453 
L 43.617916 246.295455 
L 43.781269 245.674288 
L 43.944622 240.704953 
L 44.107975 246.295455 
L 44.271328 182.004681 
L 44.434681 227.660448 
L 44.598034 241.947286 
L 44.924739 241.947286 
L 45.088092 245.984871 
L 45.251445 241.015536 
L 45.414798 246.295455 
L 45.578151 245.053121 
L 45.741504 218.342944 
L 45.904857 246.295455 
L 46.06821 235.425034 
M 46.394916 244.742537 
L 46.558269 246.295455 
L 46.721621 246.295455 
L 46.884974 245.674288 
L 47.048327 246.295455 
L 47.21168 246.295455 
L 47.375033 242.25787 
L 47.538386 243.18962 
M 47.865092 169.891927 
L 48.028445 238.530868 
L 48.191798 238.841452 
M 48.518504 246.295455 
L 48.681856 246.295455 
L 48.845209 245.984871 
M 49.171915 245.674288 
L 49.335268 246.295455 
L 49.498621 245.363704 
L 49.661974 245.984871 
M 50.152033 240.394369 
L 50.315386 245.674288 
L 50.478738 246.295455 
L 50.642091 246.295455 
L 50.968797 242.568453 
L 51.13215 215.23711 
L 51.295503 243.810787 
L 51.458856 232.629783 
L 51.622209 241.947286 
L 51.785562 223.31228 
L 51.948915 245.363704 
L 52.112268 245.363704 
L 52.27562 240.704953 
L 52.438973 245.363704 
L 52.602326 245.674288 
M 53.255738 244.742537 
L 53.419091 245.053121 
M 53.745797 242.879037 
L 53.90915 215.23711 
L 54.072502 245.363704 
L 54.235855 204.366689 
L 54.399208 241.326119 
L 54.562561 242.879037 
L 54.725914 239.152035 
L 55.05262 244.742537 
L 55.215973 246.295455 
L 55.379326 239.462619 
L 55.542679 245.984871 
L 55.706032 244.12137 
L 55.869384 245.984871 
L 56.032737 241.636703 
M 56.359443 245.363704 
L 56.522796 245.984871 
L 56.686149 237.288535 
L 56.849502 241.326119 
L 57.012855 239.152035 
M 57.339561 235.425034 
L 57.502914 243.500204 
L 57.666266 241.947286 
L 57.829619 245.984871 
L 57.992972 246.295455 
L 58.156325 210.267775 
L 58.483031 236.977951 
L 58.646384 242.568453 
L 58.809737 240.704953 
L 59.136443 246.295455 
L 59.299796 245.053121 
M 59.626501 241.636703 
L 59.789854 213.994776 
M 60.11656 236.667368 
L 60.279913 245.674288 
L 60.443266 209.025441 
L 60.606619 235.735617 
L 60.769972 232.008616 
M 61.096678 236.356784 
L 61.26003 234.803867 
L 61.750089 189.1481 
M 62.076795 209.336024 
L 62.240148 173.929512 
L 62.403501 38.204545 
L 62.730207 220.517028 
L 62.89356 241.015536 
M 63.220265 244.12137 
L 63.383618 242.568453 
L 63.546971 233.25095 
L 63.710324 244.431954 
L 63.873677 245.984871 
L 64.03703 244.12137 
L 64.200383 227.349864 
L 64.363736 245.984871 
L 64.527089 244.431954 
L 64.690442 246.295455 
L 64.853795 244.742537 
L 65.017147 245.053121 
L 65.1805 246.295455 
L 65.343853 235.11445 
L 65.507206 239.152035 
L 65.670559 233.25095 
L 65.833912 244.12137 
L 66.323971 246.295455 
L 66.487324 246.295455 
L 66.650677 245.984871 
M 66.977382 244.742537 
L 67.140735 245.984871 
L 67.304088 238.530868 
M 67.630794 243.500204 
L 67.794147 246.295455 
L 67.9575 238.530868 
L 68.120853 239.462619 
L 68.284206 245.053121 
L 68.447559 232.940366 
L 68.610911 246.295455 
L 68.774264 214.615943 
L 68.937617 244.12137 
L 69.10097 246.295455 
L 69.264323 245.674288 
L 69.427676 244.431954 
L 69.591029 246.295455 
L 69.754382 245.674288 
L 70.081088 241.015536 
L 70.244441 235.735617 
L 70.407793 245.984871 
L 70.571146 223.001696 
L 70.734499 244.431954 
L 70.897852 241.636703 
L 71.061205 246.295455 
L 71.387911 236.046201 
L 71.551264 246.295455 
L 71.714617 217.100611 
L 71.87797 246.295455 
L 72.041323 237.909701 
L 72.204675 245.984871 
L 72.368028 246.295455 
L 73.02144 246.295455 
L 73.348146 245.363704 
L 73.511499 246.295455 
L 73.674852 246.295455 
L 73.838205 245.053121 
L 74.001557 214.615943 
L 74.16491 241.015536 
L 74.328263 235.735617 
M 74.654969 245.674288 
L 74.818322 244.431954 
L 74.981675 244.431954 
L 75.145028 245.674288 
L 75.471734 241.015536 
L 75.635087 244.742537 
L 75.798439 215.23711 
L 75.961792 246.295455 
L 76.125145 246.295455 
L 76.288498 243.810787 
L 76.451851 246.295455 
L 76.615204 246.295455 
L 76.778557 244.742537 
L 76.94191 246.295455 
L 77.105263 246.295455 
L 77.268616 200.018521 
L 77.595321 240.704953 
L 77.758674 245.053121 
L 77.922027 240.083786 
L 78.08538 231.076866 
L 78.248733 246.295455 
L 78.412086 244.431954 
L 78.575439 246.295455 
L 78.738792 236.667368 
M 79.065498 238.530868 
L 79.228851 234.493284 
L 79.392203 241.636703 
L 79.555556 214.615943 
L 79.718909 241.947286 
L 79.882262 244.12137 
L 80.045615 243.810787 
L 80.208968 241.947286 
L 80.372321 246.295455 
L 80.535674 246.295455 
L 80.699027 245.674288 
L 80.86238 227.349864 
L 81.025733 246.295455 
L 81.189086 244.431954 
L 81.515791 246.295455 
L 81.679144 245.053121 
L 81.842497 245.363704 
L 82.00585 241.326119 
L 82.169203 246.295455 
L 82.332556 232.008616 
M 82.659262 138.833582 
L 82.822615 245.363704 
L 82.985968 246.295455 
M 83.312673 246.295455 
L 84.292791 246.295455 
L 84.456144 221.138195 
M 84.78285 245.984871 
L 84.946202 245.053121 
L 85.109555 246.295455 
L 85.272908 246.295455 
L 85.436261 244.12137 
L 85.599614 246.295455 
L 85.762967 244.742537 
L 85.92632 246.295455 
L 86.743084 246.295455 
L 86.906437 245.984871 
M 87.233143 246.295455 
L 87.723202 246.295455 
L 87.886555 245.053121 
L 88.049908 246.295455 
L 89.193378 246.295455 
M 89.520084 246.295455 
L 89.84679 246.295455 
L 90.173496 245.053121 
L 90.336848 237.599118 
L 90.500201 246.295455 
L 90.663554 235.425034 
M 90.99026 245.674288 
L 91.153613 245.363704 
L 91.316966 246.295455 
L 91.480319 246.295455 
L 91.643672 245.363704 
L 91.807025 246.295455 
L 91.970378 246.295455 
L 92.13373 245.674288 
L 92.297083 246.295455 
L 92.623789 246.295455 
L 92.787142 244.431954 
M 93.113848 246.295455 
L 93.930612 246.295455 
L 94.093965 236.046201 
L 94.257318 245.053121 
L 94.420671 246.295455 
L 94.584024 245.674288 
L 94.747377 246.295455 
L 95.727494 246.295455 
L 95.890847 234.493284 
L 96.0542 245.984871 
L 96.217553 242.568453 
M 96.707612 245.363704 
L 96.870965 245.984871 
L 97.034318 244.742537 
L 97.361024 246.295455 
L 97.524377 245.674288 
L 97.687729 245.674288 
L 97.851082 231.387449 
M 98.177788 244.431954 
L 98.341141 246.295455 
L 98.667847 246.295455 
L 98.8312 242.879037 
L 98.994553 246.295455 
M 99.321259 215.23711 
L 99.484611 246.295455 
M 99.811317 245.984871 
L 99.97467 246.295455 
L 100.138023 246.295455 
L 100.301376 244.742537 
L 100.464729 245.363704 
L 100.628082 241.636703 
M 101.281493 246.295455 
L 101.444846 203.745522 
L 101.608199 241.636703 
L 101.771552 246.295455 
L 102.098258 241.636703 
L 102.261611 245.674288 
L 102.424964 246.295455 
M 102.75167 245.984871 
L 102.915023 245.984871 
L 103.078375 238.841452 
L 103.241728 246.295455 
L 103.405081 246.295455 
L 103.568434 245.984871 
L 103.731787 246.295455 
L 103.89514 243.810787 
L 104.058493 224.554613 
M 104.385199 245.053121 
L 104.548552 246.295455 
L 104.711905 245.363704 
L 104.875257 242.568453 
L 105.03861 242.879037 
L 105.201963 233.872117 
L 105.365316 233.872117 
L 105.528669 246.295455 
L 105.855375 245.674288 
L 106.018728 240.083786 
L 106.345434 246.295455 
L 106.508787 246.295455 
L 106.835492 240.083786 
L 106.998845 243.810787 
L 107.162198 207.472524 
M 107.488904 239.462619 
L 107.652257 234.803867 
L 107.81561 244.742537 
L 107.978963 244.431954 
M 108.305669 244.12137 
L 108.632374 246.295455 
L 108.795727 238.530868 
L 109.122433 245.984871 
L 109.285786 238.220285 
L 109.449139 245.674288 
L 109.612492 246.295455 
L 109.775845 238.841452 
L 109.939198 243.18962 
L 110.102551 241.326119 
L 110.265903 246.295455 
L 110.429256 216.790027 
L 110.592609 241.947286 
L 110.755962 204.366689 
L 110.919315 244.12137 
L 111.082668 242.25787 
M 111.409374 246.295455 
L 111.572727 245.363704 
L 111.73608 245.363704 
L 112.062785 246.295455 
L 112.226138 246.295455 
L 112.389491 243.18962 
L 112.552844 245.984871 
L 112.716197 243.500204 
L 112.87955 246.295455 
L 113.369609 246.295455 
L 113.532962 245.053121 
L 113.696315 246.295455 
L 113.859668 245.674288 
L 114.02302 246.295455 
L 115.493197 246.295455 
L 115.65655 244.431954 
M 115.983255 234.493284 
L 116.146608 245.363704 
L 116.309961 245.674288 
L 116.473314 246.295455 
L 116.636667 245.674288 
L 116.80002 246.295455 
L 116.963373 246.295455 
L 117.290079 244.742537 
L 117.453432 246.295455 
L 117.616784 245.984871 
L 117.780137 246.295455 
L 118.106843 246.295455 
L 118.270196 242.25787 
M 118.596902 246.295455 
L 118.760255 246.295455 
L 118.923608 244.742537 
L 119.086961 229.834532 
L 119.250314 239.773202 
L 119.413666 241.636703 
L 119.577019 245.674288 
L 119.740372 241.947286 
L 119.903725 244.12137 
L 120.067078 242.879037 
L 120.230431 246.295455 
L 120.393784 246.295455 
L 120.557137 241.015536 
L 120.883843 246.295455 
L 121.047196 245.053121 
L 121.210548 246.295455 
L 121.700607 246.295455 
L 121.86396 245.984871 
L 122.027313 246.295455 
L 124.967665 246.295455 
L 125.131018 245.674288 
L 125.294371 246.295455 
L 125.457724 246.295455 
L 125.947783 244.431954 
L 126.111136 246.295455 
L 126.9279 246.295455 
L 127.091253 244.742537 
M 127.417959 241.947286 
L 127.581312 240.704953 
L 127.744665 246.295455 
L 127.908018 244.12137 
L 128.071371 238.841452 
L 128.234724 218.032361 
M 128.561429 245.674288 
L 128.888135 246.295455 
M 129.214841 246.295455 
L 129.378194 245.363704 
L 129.541547 246.295455 
L 129.7049 245.984871 
L 129.868253 246.295455 
L 130.031606 245.674288 
M 130.358311 246.295455 
L 130.521664 242.879037 
L 130.685017 242.25787 
L 130.84837 242.879037 
L 131.011723 245.363704 
M 131.338429 234.1827 
L 131.501782 233.872117 
L 131.665135 242.879037 
L 131.991841 245.984871 
L 132.155193 245.674288 
L 132.318546 157.158005 
L 132.481899 244.12137 
L 132.645252 242.879037 
M 132.971958 233.561533 
L 133.135311 242.25787 
M 133.462017 236.667368 
L 133.62537 182.625848 
L 133.788723 180.762347 
M 134.115428 239.462619 
L 134.278781 238.530868 
L 134.442134 245.363704 
M 134.76884 245.363704 
L 134.932193 241.947286 
L 135.095546 223.933446 
L 135.258899 236.977951 
L 135.422252 239.773202 
L 135.585605 240.083786 
L 135.748957 244.742537 
L 136.075663 244.742537 
L 136.402369 242.879037 
L 136.565722 214.30536 
M 136.892428 236.977951 
L 137.055781 244.431954 
L 137.382487 245.674288 
L 137.545839 244.742537 
L 137.709192 244.742537 
L 137.872545 246.295455 
L 138.035898 244.431954 
L 138.199251 237.288535 
L 138.362604 246.295455 
L 138.525957 241.015536 
L 138.68931 245.363704 
L 138.852663 245.984871 
L 139.016016 245.674288 
L 139.179369 246.295455 
L 139.506074 246.295455 
L 139.669427 224.865197 
M 139.996133 240.083786 
L 140.159486 243.500204 
L 140.322839 244.431954 
M 140.649545 245.053121 
L 140.812898 245.053121 
L 140.976251 246.295455 
L 141.139603 244.742537 
L 141.302956 241.947286 
L 141.466309 245.363704 
L 141.629662 244.742537 
L 141.793015 246.295455 
M 142.119721 221.759362 
L 142.283074 223.933446 
L 142.60978 241.326119 
M 142.936485 244.12137 
L 143.099838 236.046201 
L 143.263191 242.568453 
L 143.589897 233.872117 
L 143.75325 245.363704 
L 143.916603 245.984871 
L 144.079956 235.425034 
M 144.406662 206.851357 
L 144.570015 246.295455 
L 144.733367 245.053121 
L 144.89672 195.980936 
L 145.060073 245.674288 
L 145.223426 222.380529 
L 145.550132 245.053121 
L 145.713485 236.356784 
L 145.876838 246.295455 
L 146.040191 243.18962 
L 146.203544 245.363704 
L 146.366897 236.667368 
L 146.53025 240.083786 
L 146.693602 232.940366 
L 146.856955 235.735617 
M 147.183661 239.462619 
L 147.347014 196.602103 
L 147.67372 246.295455 
L 148.000426 246.295455 
M 148.327132 245.674288 
L 148.490484 245.674288 
L 148.653837 246.295455 
L 148.81719 241.015536 
M 149.143896 242.568453 
L 149.470602 245.674288 
M 149.797308 245.363704 
L 149.960661 245.363704 
L 150.124014 245.674288 
L 150.287366 245.363704 
L 150.450719 245.984871 
L 150.614072 244.12137 
L 150.940778 233.25095 
L 151.104131 236.667368 
M 151.430837 238.220285 
L 151.59419 235.735617 
L 151.757543 230.145115 
L 151.920896 245.674288 
L 152.084248 246.295455 
L 152.247601 244.742537 
L 152.410954 245.674288 
L 152.574307 245.053121 
M 152.901013 242.25787 
L 153.064366 246.295455 
L 153.227719 244.431954 
L 153.391072 245.674288 
L 153.554425 245.053121 
L 153.717778 245.984871 
L 153.88113 245.984871 
M 154.207836 246.295455 
L 154.371189 246.295455 
L 154.697895 245.674288 
L 154.861248 244.742537 
L 155.024601 235.735617 
L 155.187954 243.18962 
L 155.351307 241.636703 
L 155.678012 245.053121 
M 156.004718 236.046201 
L 156.168071 217.721777 
L 156.331424 244.742537 
M 156.65813 242.568453 
L 156.821483 244.742537 
L 157.148189 246.295455 
L 157.311542 245.674288 
L 157.474894 244.12137 
L 157.8016 246.295455 
L 157.964953 241.947286 
M 158.291659 245.984871 
L 158.455012 246.295455 
L 158.945071 246.295455 
L 159.108424 245.363704 
M 159.435129 244.12137 
L 159.598482 241.326119 
L 159.761835 246.295455 
L 159.925188 242.879037 
L 160.088541 245.984871 
L 160.415247 237.288535 
L 160.5786 241.326119 
L 160.741953 237.909701 
M 161.068658 245.053121 
L 161.232011 245.984871 
L 161.395364 239.773202 
L 161.558717 246.295455 
L 161.885423 245.363704 
L 162.048776 241.636703 
M 162.375482 246.295455 
L 162.538835 246.295455 
L 162.702188 245.984871 
M 163.028893 246.295455 
L 163.192246 245.674288 
L 163.355599 246.295455 
L 163.518952 246.295455 
L 163.682305 245.363704 
L 163.845658 243.500204 
L 164.009011 244.431954 
L 164.172364 242.879037 
L 164.335717 229.213365 
L 164.49907 244.431954 
L 164.662423 207.783107 
L 164.825775 219.585278 
L 164.989128 241.947286 
M 165.315834 244.742537 
L 165.479187 241.015536 
L 165.64254 245.984871 
L 165.805893 245.984871 
L 165.969246 243.18962 
L 166.132599 245.363704 
L 166.295952 220.517028 
L 166.459305 245.674288 
L 166.622657 238.841452 
M 166.949363 245.984871 
L 167.276069 240.083786 
L 167.439422 244.431954 
L 167.602775 212.752442 
L 167.766128 242.25787 
L 167.929481 234.493284 
L 168.092834 245.674288 
L 168.256187 246.295455 
L 168.419539 245.363704 
L 168.582892 246.295455 
L 168.746245 200.329104 
L 168.909598 239.462619 
L 169.072951 244.431954 
M 169.399657 238.220285 
L 169.56301 245.674288 
L 169.726363 246.295455 
L 169.889716 245.363704 
L 170.053069 241.947286 
L 170.216421 246.295455 
L 170.379774 244.742537 
L 170.543127 245.674288 
L 170.70648 241.947286 
L 171.033186 244.431954 
M 171.359892 245.984871 
L 171.523245 243.500204 
L 171.686598 245.674288 
L 171.849951 245.053121 
L 172.013303 228.902782 
L 172.340009 244.742537 
L 172.666715 214.30536 
M 172.993421 242.568453 
L 173.156774 237.288535 
L 173.320127 239.773202 
L 173.48348 244.12137 
L 173.646833 237.288535 
L 173.810185 172.687178 
M 174.136891 218.342944 
L 174.300244 238.530868 
L 174.463597 235.11445 
L 174.62695 227.039281 
L 174.790303 245.984871 
L 174.953656 246.295455 
L 175.117009 246.295455 
L 175.280362 245.363704 
M 175.607067 237.288535 
L 175.77042 245.363704 
L 175.933773 246.295455 
L 176.097126 245.984871 
L 176.260479 245.984871 
L 176.423832 246.295455 
L 176.913891 246.295455 
M 177.240597 246.295455 
L 178.220714 246.295455 
L 178.384067 240.704953 
L 178.54742 246.295455 
L 178.710773 231.698033 
L 178.874126 244.431954 
L 179.037479 233.25095 
L 179.200831 246.295455 
L 179.527537 246.295455 
L 179.69089 243.18962 
L 179.854243 243.18962 
L 180.017596 245.984871 
L 180.180949 227.971031 
L 180.344302 246.295455 
L 180.507655 246.295455 
L 180.671008 244.431954 
L 180.834361 246.295455 
L 181.487772 246.295455 
L 181.651125 245.363704 
L 181.814478 246.295455 
L 181.977831 246.295455 
L 182.141184 245.363704 
L 182.304537 246.295455 
L 183.284654 246.295455 
M 183.61136 246.295455 
L 184.101419 246.295455 
M 184.428125 246.295455 
L 185.081536 246.295455 
M 185.408242 246.295455 
L 186.225007 246.295455 
M 186.878418 246.295455 
L 187.205124 246.295455 
M 187.858536 246.295455 
L 188.021889 245.984871 
L 188.185242 246.295455 
L 188.511947 246.295455 
L 188.6753 245.984871 
L 188.838653 246.295455 
M 189.165359 246.295455 
L 189.492065 246.295455 
M 189.818771 246.295455 
L 191.942358 246.295455 
M 192.269064 244.12137 
L 192.432417 246.295455 
L 192.922476 246.295455 
L 193.085829 245.674288 
L 193.249182 246.295455 
L 193.412535 246.295455 
M 193.73924 246.295455 
L 194.065946 246.295455 
M 194.392652 246.295455 
L 194.719358 246.295455 
L 194.882711 245.053121 
L 195.209417 246.295455 
L 195.699475 242.879037 
L 195.862828 223.933446 
L 196.026181 243.500204 
L 196.352887 245.984871 
L 196.51624 241.326119 
L 196.679593 246.295455 
L 196.842946 243.810787 
M 197.169652 245.984871 
L 197.333005 246.295455 
L 197.496357 219.895862 
M 198.149769 241.636703 
L 198.313122 242.25787 
L 198.476475 243.810787 
L 198.639828 188.837517 
L 198.803181 245.363704 
L 198.966534 242.568453 
M 199.293239 164.301425 
L 199.456592 246.295455 
M 199.783298 221.759362 
L 199.946651 243.18962 
L 200.110004 246.295455 
L 200.43671 246.295455 
L 200.600063 245.984871 
L 200.763416 246.295455 
L 201.416827 246.295455 
L 201.58018 245.363704 
L 201.743533 245.363704 
L 201.906886 246.295455 
L 202.560298 246.295455 
L 202.723651 241.947286 
L 202.887003 246.295455 
L 203.050356 229.213365 
L 203.213709 238.220285 
M 203.540415 246.295455 
L 203.703768 240.704953 
L 203.867121 246.295455 
L 204.030474 246.295455 
M 204.35718 246.295455 
L 204.683885 246.295455 
L 204.847238 244.742537 
L 205.010591 246.295455 
L 209.911179 246.295455 
M 210.237884 246.295455 
L 210.56459 246.295455 
M 210.891296 246.295455 
L 211.218002 246.295455 
L 211.381355 241.326119 
L 211.708061 246.295455 
L 211.871413 240.704953 
L 212.034766 246.295455 
M 212.361472 212.752442 
L 212.524825 230.455699 
L 213.014884 190.390434 
L 213.178237 190.701018 
L 213.34159 246.295455 
L 214.158354 246.295455 
L 214.321707 212.752442 
L 214.48506 246.295455 
L 215.301825 246.295455 
L 215.465178 245.674288 
L 215.62853 246.295455 
L 216.772001 246.295455 
L 217.098707 192.564518 
L 217.26206 89.761398 
L 217.588765 215.23711 
L 217.752118 236.667368 
L 217.915471 164.922592 
L 218.078824 213.063026 
L 218.242177 186.974016 
L 218.40553 189.458684 
L 218.568883 244.12137 
L 218.732236 153.741588 
L 218.895589 246.295455 
L 219.058942 245.984871 
L 219.222294 246.295455 
M 219.549 246.295455 
L 219.712353 156.226255 
L 219.875706 245.984871 
L 220.039059 246.295455 
L 220.202412 245.984871 
L 220.365765 246.295455 
L 220.855824 246.295455 
L 221.019176 244.12137 
M 221.345882 246.295455 
L 221.509235 246.295455 
L 221.672588 245.984871 
M 221.999294 246.295455 
L 222.162647 242.25787 
L 222.326 223.622863 
L 222.489353 225.486364 
M 222.816058 227.039281 
L 222.979411 246.295455 
L 223.142764 244.12137 
L 223.306117 246.295455 
L 223.46947 221.448779 
L 223.632823 242.25787 
L 223.796176 246.295455 
L 223.959529 244.431954 
L 224.122882 244.431954 
L 224.286235 246.295455 
L 224.61294 246.295455 
M 224.939646 245.984871 
L 225.102999 243.18962 
L 225.266352 243.500204 
L 225.429705 246.295455 
L 225.919764 246.295455 
M 226.409822 246.295455 
L 226.899881 246.295455 
L 227.063234 244.431954 
L 227.226587 246.295455 
L 227.38994 244.12137 
M 227.716646 236.356784 
L 227.879999 244.431954 
L 228.206704 241.015536 
L 228.53341 244.431954 
L 228.696763 244.431954 
L 228.860116 245.984871 
L 229.023469 246.295455 
L 230.983704 246.295455 
L 231.147057 242.568453 
L 231.31041 246.295455 
L 231.473763 246.295455 
L 231.637116 245.363704 
L 231.800469 246.295455 
L 231.963821 246.295455 
M 232.45388 246.295455 
L 233.107292 246.295455 
M 233.433998 246.295455 
L 233.760703 246.295455 
L 233.924056 228.281615 
L 234.087409 245.053121 
L 234.250762 246.295455 
M 234.577468 245.053121 
L 234.740821 241.326119 
L 234.904174 246.295455 
L 235.067527 177.967096 
L 235.23088 211.510109 
L 235.394233 209.336024 
L 235.557585 227.971031 
L 235.720938 180.451764 
L 235.884291 184.178765 
L 236.047644 171.755427 
L 236.37435 232.629783 
L 236.537703 223.622863 
L 236.701056 187.905767 
L 236.864409 228.281615 
L 237.027762 200.329104 
L 237.191115 228.902782 
L 237.354467 237.909701 
L 237.51782 238.530868 
L 237.681173 241.947286 
M 238.007879 229.523948 
L 238.171232 231.698033 
L 238.334585 246.295455 
L 238.987997 246.295455 
L 239.151349 235.425034 
L 239.314702 233.561533 
L 239.478055 243.18962 
L 239.641408 235.425034 
L 239.804761 246.295455 
L 239.968114 245.363704 
M 240.621526 230.455699 
L 240.784879 246.295455 
L 241.601643 246.295455 
M 241.928349 246.295455 
L 242.091702 246.295455 
M 242.418408 246.295455 
L 242.908466 246.295455 
L 243.071819 221.448779 
L 243.235172 230.766282 
L 243.398525 226.107531 
M 243.725231 245.984871 
L 243.888584 246.295455 
L 244.051937 242.25787 
L 244.21529 246.295455 
L 244.378643 242.25787 
L 244.541995 246.295455 
L 244.868701 246.295455 
L 245.032054 245.363704 
L 245.195407 246.295455 
L 245.35876 245.984871 
L 245.522113 246.295455 
L 245.685466 245.363704 
L 245.848819 246.295455 
L 246.175525 246.295455 
M 246.50223 246.295455 
L 247.482348 246.295455 
M 247.972407 246.295455 
L 248.789171 246.295455 
L 248.952524 244.431954 
L 249.115877 246.295455 
L 249.27923 244.431954 
L 249.442583 246.295455 
L 250.259347 246.295455 
M 250.586053 246.295455 
L 250.749406 246.295455 
M 251.076112 246.295455 
L 251.239465 235.425034 
M 251.566171 244.431954 
L 251.729524 240.394369 
L 251.892876 246.295455 
L 252.056229 242.568453 
L 252.219582 246.295455 
L 252.709641 246.295455 
M 253.036347 246.295455 
L 254.016464 246.295455 
L 254.179817 245.674288 
L 254.34317 246.295455 
M 254.669876 246.295455 
L 255.323288 246.295455 
L 255.48664 243.500204 
L 255.649993 246.295455 
L 256.793464 246.295455 
L 256.956817 245.363704 
L 257.12017 246.295455 
L 257.283522 245.674288 
L 257.446875 246.295455 
L 257.773581 246.295455 
L 257.936934 245.674288 
L 258.100287 227.660448 
L 258.26364 241.636703 
L 258.426993 242.568453 
L 258.590346 241.015536 
L 258.753699 244.12137 
L 259.080404 217.411194 
L 259.40711 242.25787 
L 259.570463 246.295455 
L 260.877286 246.295455 
L 261.040639 245.984871 
L 261.203992 246.295455 
M 261.530698 225.17578 
L 261.694051 246.295455 
L 261.857404 246.295455 
M 262.18411 246.295455 
L 262.347463 245.363704 
L 262.510816 246.295455 
L 262.674169 246.295455 
L 262.837521 245.363704 
L 263.000874 246.295455 
L 263.164227 243.810787 
L 263.32758 245.984871 
L 263.490933 244.12137 
M 263.817639 245.053121 
L 263.980992 246.295455 
M 264.307698 245.363704 
L 264.471051 243.810787 
L 264.634403 246.295455 
L 265.124462 246.295455 
M 265.451168 246.295455 
L 265.614521 245.984871 
L 265.777874 246.295455 
L 266.267933 246.295455 
L 266.431285 239.773202 
L 266.594638 240.083786 
L 266.757991 246.295455 
L 267.901462 246.295455 
L 268.064815 243.810787 
L 268.228167 243.500204 
L 268.39152 238.220285 
L 268.554873 246.295455 
L 268.718226 239.152035 
M 269.044932 245.053121 
L 269.208285 246.295455 
L 269.371638 246.295455 
L 269.534991 245.674288 
L 269.698344 246.295455 
L 269.861697 243.500204 
L 270.025049 246.295455 
L 270.188402 232.319199 
L 270.351755 243.18962 
L 270.515108 246.295455 
L 270.678461 246.295455 
L 270.841814 244.12137 
L 271.331873 246.295455 
L 271.821931 246.295455 
L 271.985284 244.431954 
L 272.148637 246.295455 
L 273.292108 246.295455 
M 273.618813 246.295455 
L 274.108872 246.295455 
M 274.435578 246.295455 
L 274.762284 246.295455 
M 275.08899 246.295455 
L 275.252343 245.984871 
L 275.415695 246.295455 
M 275.742401 246.295455 
L 275.905754 245.984871 
L 276.069107 246.295455 
L 276.23246 246.295455 
L 276.395813 245.363704 
L 276.722519 238.530868 
L 276.885872 246.295455 
L 277.049225 245.363704 
M 277.37593 246.295455 
L 277.539283 245.363704 
L 277.702636 237.288535 
L 277.865989 246.295455 
L 278.029342 242.879037 
L 278.192695 226.107531 
M 278.519401 237.909701 
L 278.682754 246.295455 
L 279.00946 246.295455 
L 279.172812 227.971031 
L 279.336165 239.152035 
M 279.662871 158.710923 
L 279.826224 174.861262 
L 279.989577 235.11445 
L 280.15293 237.288535 
L 280.316283 224.865197 
L 280.642989 245.984871 
L 280.806342 232.319199 
L 280.969694 246.295455 
L 281.2964 218.342944 
L 281.459753 242.879037 
L 281.623106 231.698033 
L 281.786459 246.295455 
L 281.949812 231.076866 
L 282.113165 246.295455 
L 282.276518 245.674288 
L 282.439871 233.561533 
M 282.766576 236.977951 
L 283.093282 205.919607 
M 283.419988 243.810787 
L 283.583341 246.295455 
L 283.746694 242.568453 
L 283.910047 183.247015 
L 284.0734 241.636703 
L 284.236753 215.858277 
L 284.400106 246.295455 
L 284.563458 241.947286 
L 284.726811 245.674288 
L 284.890164 246.295455 
M 285.21687 246.295455 
L 285.380223 245.674288 
L 285.543576 245.674288 
L 285.706929 244.742537 
L 285.870282 246.295455 
L 286.033635 236.046201 
L 286.196988 235.425034 
L 286.36034 244.742537 
L 286.523693 246.295455 
M 286.850399 239.152035 
L 287.013752 213.684193 
L 287.177105 210.267775 
L 287.340458 172.997761 
L 287.503811 192.253935 
L 287.667164 189.1481 
M 287.99387 204.366689 
L 288.157222 197.22327 
L 288.320575 224.554613 
L 288.483928 214.926526 
L 288.810634 245.674288 
L 288.973987 245.363704 
L 289.13734 235.425034 
L 289.300693 244.431954 
L 289.464046 244.742537 
L 289.627399 245.984871 
M 290.28081 246.295455 
L 291.424281 246.295455 
M 291.750986 246.295455 
L 291.914339 246.295455 
L 292.077692 239.462619 
L 292.241045 245.984871 
L 292.404398 245.674288 
L 292.567751 241.947286 
L 292.731104 242.879037 
L 292.894457 240.394369 
L 293.05781 246.295455 
M 293.384516 245.674288 
L 293.547868 243.18962 
L 293.711221 246.295455 
L 293.874574 246.295455 
L 294.037927 243.500204 
L 294.20128 165.543758 
L 294.364633 246.295455 
L 294.527986 222.691113 
M 294.854692 221.759362 
L 295.018045 246.295455 
L 295.181398 234.803867 
L 295.34475 52.180801 
L 295.508103 216.790027 
L 295.834809 242.568453 
L 296.161515 213.994776 
L 296.324868 205.609023 
L 296.488221 209.957191 
L 296.651574 208.714858 
L 296.814927 218.653528 
L 296.97828 244.12137 
L 297.141633 238.220285 
L 297.304985 244.12137 
L 297.468338 242.25787 
L 297.631691 238.530868 
L 297.795044 245.363704 
L 297.958397 246.295455 
L 298.12175 245.984871 
L 298.285103 246.295455 
L 298.448456 245.984871 
L 298.611809 245.363704 
L 298.775162 246.295455 
L 298.938515 245.984871 
L 299.101867 246.295455 
L 299.26522 245.984871 
L 299.428573 245.984871 
L 299.591926 246.295455 
L 299.755279 246.295455 
L 299.918632 243.810787 
L 300.081985 246.295455 
L 300.245338 246.295455 
M 300.572044 246.295455 
L 300.735397 243.18962 
L 300.898749 246.295455 
L 301.062102 246.295455 
L 301.225455 237.599118 
L 301.388808 246.295455 
L 302.368926 246.295455 
L 302.532279 244.431954 
L 302.695631 246.295455 
L 302.858984 244.12137 
L 303.022337 246.295455 
L 303.349043 245.363704 
L 303.512396 211.820692 
L 303.675749 223.622863 
L 303.839102 246.295455 
L 304.002455 216.790027 
L 304.165808 239.462619 
L 304.329161 246.295455 
L 304.492513 239.152035 
L 304.655866 197.22327 
L 304.819219 225.17578 
L 304.982572 230.145115 
L 305.145925 195.980936 
L 305.309278 244.742537 
L 305.472631 246.295455 
L 305.635984 246.295455 
L 305.799337 240.083786 
L 305.96269 229.213365 
L 306.126043 244.431954 
L 306.289395 232.629783 
L 306.616101 246.295455 
L 306.779454 245.363704 
L 307.10616 246.295455 
L 307.269513 245.053121 
M 307.596219 246.295455 
L 307.759572 245.674288 
L 307.922925 243.18962 
L 308.086277 243.18962 
L 308.24963 242.568453 
L 308.412983 246.295455 
L 308.576336 245.674288 
L 308.739689 246.295455 
L 308.903042 246.295455 
L 309.066395 244.742537 
L 309.229748 215.23711 
L 309.393101 241.015536 
L 309.556454 246.295455 
L 309.719807 227.660448 
L 309.883159 243.500204 
L 310.046512 244.431954 
M 310.373218 243.810787 
L 310.536571 244.742537 
L 310.699924 236.977951 
L 310.863277 245.363704 
L 311.02663 246.295455 
L 311.189983 244.742537 
L 311.680041 246.295455 
L 311.843394 245.674288 
L 312.006747 246.295455 
L 312.1701 244.12137 
L 312.333453 246.295455 
L 312.496806 244.431954 
L 312.660159 245.984871 
L 312.823512 243.500204 
L 312.986865 246.295455 
L 313.150218 232.008616 
L 313.313571 241.326119 
L 313.476924 242.25787 
L 313.640276 245.984871 
L 313.803629 245.984871 
L 313.966982 245.674288 
L 314.130335 246.295455 
M 314.783747 245.984871 
L 314.9471 246.295455 
L 315.763864 246.295455 
L 315.927217 245.984871 
L 316.09057 236.977951 
L 316.253923 244.431954 
L 316.417276 246.295455 
M 316.743982 246.295455 
L 316.907335 246.295455 
L 317.070688 243.810787 
L 317.23404 245.674288 
L 317.397393 232.629783 
L 317.560746 246.295455 
L 317.887452 242.879037 
L 318.050805 242.25787 
L 318.214158 228.281615 
L 318.377511 243.18962 
L 318.540864 236.977951 
L 318.704217 178.898847 
L 318.86757 227.349864 
L 319.030922 218.964111 
L 319.194275 240.083786 
L 319.357628 229.213365 
L 319.520981 244.12137 
L 319.684334 234.803867 
L 320.01104 246.295455 
L 320.501099 246.295455 
L 320.664452 245.674288 
L 320.991157 246.295455 
L 321.317863 246.295455 
L 321.481216 230.766282 
L 321.644569 246.295455 
L 321.807922 246.295455 
L 321.971275 243.810787 
L 322.134628 246.295455 
L 322.297981 245.674288 
L 322.461334 237.288535 
L 322.624686 245.674288 
L 322.788039 233.872117 
L 322.951392 246.295455 
L 323.114745 246.295455 
L 323.278098 245.674288 
L 323.441451 246.295455 
L 323.604804 238.220285 
L 323.93151 242.879037 
L 324.094863 211.510109 
M 324.421568 245.053121 
L 324.584921 238.530868 
L 324.748274 246.295455 
L 324.911627 246.295455 
L 325.07498 243.18962 
L 325.238333 245.674288 
L 325.565039 246.295455 
L 325.891745 246.295455 
L 326.055098 245.363704 
L 326.21845 246.295455 
L 326.381803 246.295455 
L 326.545156 241.636703 
L 326.708509 243.18962 
L 326.871862 246.295455 
L 327.035215 243.500204 
M 327.525274 243.810787 
L 327.688627 241.636703 
L 327.85198 241.326119 
L 328.015332 240.083786 
L 328.178685 245.674288 
L 328.342038 246.295455 
L 328.505391 241.636703 
L 328.668744 220.827612 
L 328.832097 246.295455 
L 328.99545 242.25787 
L 329.322156 246.295455 
L 329.485509 246.295455 
L 329.648862 245.674288 
L 329.812215 246.295455 
L 329.975567 244.742537 
L 330.13892 245.984871 
M 330.465626 246.295455 
L 330.792332 246.295455 
M 331.119038 246.295455 
L 332.262508 246.295455 
L 332.425861 245.984871 
M 332.752567 245.674288 
L 333.079273 246.295455 
L 333.569331 246.295455 
M 333.896037 245.674288 
L 334.05939 246.295455 
M 334.386096 246.295455 
L 334.549449 245.674288 
L 334.712802 246.295455 
L 334.876155 245.053121 
L 335.039508 239.773202 
L 335.202861 227.039281 
L 335.366213 242.25787 
L 335.529566 229.834532 
M 335.856272 223.31228 
L 336.019625 238.530868 
L 336.182978 241.947286 
L 336.346331 238.841452 
L 336.509684 243.810787 
L 336.673037 224.554613 
L 336.83639 221.138195 
L 336.999743 238.841452 
L 337.163095 241.947286 
L 337.326448 235.425034 
L 337.653154 245.674288 
L 337.816507 235.11445 
L 338.143213 246.295455 
L 338.306566 245.363704 
L 338.469919 238.841452 
L 338.633272 226.107531 
M 338.959977 221.138195 
L 339.12333 239.462619 
L 339.286683 244.431954 
M 339.613389 239.773202 
L 339.776742 237.909701 
L 339.940095 246.295455 
L 340.103448 246.295455 
L 340.430154 236.977951 
L 340.593507 193.806852 
L 340.756859 246.295455 
L 340.920212 229.213365 
M 341.246918 246.295455 
L 341.410271 245.674288 
L 341.573624 245.674288 
L 341.736977 244.431954 
L 341.90033 246.295455 
L 342.063683 243.18962 
M 342.390389 243.18962 
L 342.553741 244.12137 
L 342.717094 246.295455 
L 342.880447 245.674288 
L 343.0438 235.425034 
L 343.207153 246.295455 
L 343.370506 244.742537 
L 343.533859 238.530868 
L 343.697212 224.554613 
L 343.860565 246.295455 
L 344.023918 238.841452 
L 344.187271 240.704953 
L 344.513976 246.295455 
L 344.840682 233.872117 
L 345.004035 245.984871 
L 345.167388 243.810787 
M 345.494094 236.667368 
L 345.657447 246.295455 
M 345.984153 241.015536 
L 346.147506 244.742537 
L 346.474211 246.295455 
L 346.637564 245.674288 
L 346.800917 240.394369 
M 347.290976 236.977951 
L 347.454329 244.431954 
L 347.617682 246.295455 
L 347.781035 246.295455 
L 347.944388 243.18962 
L 348.10774 246.295455 
L 348.434446 230.766282 
L 348.597799 242.568453 
L 348.924505 246.295455 
M 349.251211 246.295455 
L 349.414564 246.295455 
L 349.577917 244.431954 
L 349.74127 246.295455 
L 350.067975 235.11445 
L 350.231328 246.295455 
L 350.394681 230.766282 
L 350.558034 245.674288 
L 350.721387 246.295455 
L 350.88474 243.810787 
L 351.048093 246.295455 
L 351.211446 245.674288 
M 351.538152 246.295455 
L 351.701504 246.295455 
L 351.864857 244.431954 
M 352.191563 245.674288 
L 352.354916 246.295455 
L 352.518269 246.295455 
L 352.681622 245.984871 
L 352.844975 246.295455 
L 353.008328 243.18962 
L 353.171681 246.295455 
L 353.335034 245.674288 
L 353.498386 246.295455 
L 353.825092 246.295455 
L 353.988445 245.984871 
L 354.151798 246.295455 
L 354.315151 246.295455 
M 354.641857 245.363704 
L 354.80521 246.295455 
L 354.968563 245.053121 
L 355.131916 246.295455 
L 355.295268 246.295455 
L 355.458621 240.083786 
L 355.621974 245.984871 
L 355.94868 242.568453 
L 356.112033 246.295455 
L 356.602092 243.18962 
L 356.928798 244.431954 
L 357.09215 245.674288 
L 357.255503 245.674288 
L 357.418856 244.742537 
L 357.582209 241.636703 
L 357.745562 230.766282 
M 358.072268 233.872117 
L 358.398974 245.674288 
M 358.889032 242.25787 
L 359.215738 246.295455 
L 359.379091 243.810787 
L 359.542444 245.363704 
L 359.705797 245.053121 
L 359.86915 246.295455 
L 360.032503 246.295455 
M 360.522562 246.295455 
L 360.685914 246.295455 
M 361.01262 245.674288 
L 361.175973 246.295455 
L 361.339326 246.295455 
M 361.666032 246.295455 
L 361.992738 246.295455 
L 362.156091 245.674288 
M 362.482797 236.977951 
L 362.646149 246.295455 
L 362.809502 240.704953 
M 363.136208 246.295455 
L 363.299561 245.674288 
L 363.462914 246.295455 
L 363.626267 246.295455 
L 363.78962 245.674288 
L 363.952973 244.431954 
L 364.116326 246.295455 
L 364.279679 242.879037 
L 364.443031 246.295455 
L 364.606384 246.295455 
L 364.769737 243.500204 
L 364.93309 246.295455 
L 365.423149 246.295455 
L 365.586502 245.674288 
L 365.749855 246.295455 
L 365.913208 245.674288 
M 366.239913 245.984871 
L 366.403266 246.295455 
L 366.566619 246.295455 
L 366.729972 245.674288 
L 366.893325 246.295455 
L 367.056678 246.295455 
M 367.383384 244.742537 
L 367.546737 237.599118 
L 367.71009 246.295455 
M 368.036795 245.674288 
L 368.363501 246.295455 
L 368.526854 244.12137 
L 368.690207 236.046201 
L 368.85356 236.977951 
L 369.016913 242.879037 
L 369.180266 236.356784 
L 369.343619 225.17578 
M 369.670325 225.17578 
L 369.99703 246.295455 
L 370.160383 246.295455 
L 370.323736 244.742537 
L 370.650442 246.295455 
L 370.813795 245.363704 
L 370.977148 243.18962 
L 371.140501 246.295455 
L 371.303854 244.742537 
L 371.467207 245.984871 
L 371.630559 245.674288 
L 371.957265 242.568453 
L 372.120618 246.295455 
L 372.283971 243.18962 
L 372.447324 230.766282 
L 372.77403 239.773202 
L 372.937383 246.295455 
L 373.100736 241.326119 
L 373.264089 242.568453 
L 373.427441 245.363704 
L 373.590794 244.742537 
L 373.9175 246.295455 
L 374.080853 171.755427 
L 374.244206 246.295455 
L 374.407559 244.742537 
L 374.570912 246.295455 
L 374.734265 246.295455 
L 374.897618 243.500204 
L 375.060971 237.909701 
L 375.224323 246.295455 
L 375.387676 244.742537 
L 375.551029 246.295455 
L 375.714382 224.554613 
L 375.877735 244.431954 
L 376.041088 236.046201 
L 376.204441 246.295455 
L 376.367794 246.295455 
L 376.531147 242.568453 
L 376.857853 246.295455 
L 377.347911 246.295455 
L 377.511264 245.363704 
L 377.674617 243.18962 
L 377.83797 246.295455 
L 378.164676 242.568453 
L 378.328029 245.363704 
L 378.491382 240.083786 
L 378.654735 122.062076 
L 378.818088 246.295455 
L 378.98144 221.448779 
L 379.144793 240.083786 
L 379.308146 244.12137 
L 379.471499 244.431954 
L 379.634852 246.295455 
L 379.798205 244.742537 
L 379.961558 209.336024 
L 380.124911 228.281615 
L 380.288264 227.349864 
M 380.61497 220.206445 
L 380.941675 242.879037 
L 381.268381 246.295455 
L 381.431734 242.568453 
L 381.75844 246.295455 
L 381.921793 246.295455 
L 382.085146 244.431954 
L 382.248499 245.674288 
L 382.411852 242.568453 
L 382.575204 246.295455 
L 382.738557 236.977951 
M 383.065263 246.295455 
L 383.718675 246.295455 
L 383.882028 245.984871 
M 384.208734 233.872117 
L 384.372086 243.500204 
L 384.535439 246.295455 
L 384.698792 245.984871 
L 384.862145 241.947286 
L 385.025498 242.25787 
L 385.188851 246.295455 
L 385.352204 245.674288 
L 385.515557 246.295455 
L 385.67891 239.152035 
L 385.842263 246.295455 
L 386.005616 244.431954 
L 386.168968 236.977951 
L 386.332321 236.977951 
L 386.495674 246.295455 
L 387.475792 246.295455 
M 387.96585 246.295455 
L 388.129203 246.295455 
L 388.292556 242.568453 
L 388.455909 245.674288 
M 388.782615 246.295455 
L 388.945968 238.530868 
L 389.109321 246.295455 
L 389.272674 244.742537 
L 389.436027 246.295455 
L 389.59938 244.431954 
L 389.762732 246.295455 
L 389.926085 245.984871 
L 390.089438 246.295455 
L 390.252791 245.674288 
L 390.416144 246.295455 
L 390.579497 246.295455 
L 390.74285 245.053121 
M 391.069556 244.431954 
L 391.232909 246.295455 
L 391.722967 246.295455 
M 392.049673 246.295455 
L 392.539732 246.295455 
L 392.703085 244.742537 
L 392.866438 235.735617 
L 393.029791 246.295455 
L 393.193144 243.18962 
L 393.356496 246.295455 
L 393.519849 241.636703 
L 393.683202 246.295455 
L 393.846555 246.295455 
L 394.009908 244.12137 
L 394.173261 246.295455 
L 394.826673 246.295455 
M 395.153379 246.295455 
L 395.316731 241.947286 
L 395.480084 246.295455 
L 395.643437 246.295455 
M 395.970143 246.295455 
L 396.133496 246.295455 
M 396.460202 246.295455 
L 396.623555 239.462619 
L 396.786908 246.295455 
L 396.950261 243.810787 
L 397.113613 245.984871 
L 397.276966 246.295455 
L 397.440319 245.674288 
L 397.603672 246.295455 
L 397.767025 236.356784 
L 397.930378 233.25095 
L 398.093731 244.431954 
L 398.257084 233.25095 
L 398.420437 242.568453 
L 398.747143 246.295455 
L 398.910495 242.25787 
L 399.073848 245.984871 
L 399.237201 244.742537 
L 399.400554 246.295455 
M 399.72726 244.431954 
L 399.890613 246.295455 
L 400.380672 246.295455 
L 400.544025 243.500204 
M 401.034083 245.984871 
L 401.197436 246.295455 
L 401.360789 228.902782 
M 401.687495 245.674288 
L 401.850848 246.295455 
L 402.014201 230.766282 
L 402.177554 246.295455 
L 402.340907 246.295455 
L 402.504259 232.319199 
L 402.667612 243.810787 
L 402.830965 246.295455 
L 402.994318 246.295455 
L 402.994318 246.295455 
" style="fill:none;stroke:#008fd5;stroke-width:4;"/>
   </g>
   <g id="patch_3">
    <path d="M 20.675 256.7 
L 20.675 27.8 
" style="fill:none;stroke:#f0f0f0;stroke-linecap:square;stroke-linejoin:miter;stroke-width:3;"/>
   </g>
   <g id="patch_4">
    <path d="M 421.2 256.7 
L 421.2 27.8 
" style="fill:none;stroke:#f0f0f0;stroke-linecap:square;stroke-linejoin:miter;stroke-width:3;"/>
   </g>
   <g id="patch_5">
    <path d="M 20.675 256.7 
L 421.2 256.7 
" style="fill:none;stroke:#f0f0f0;stroke-linecap:square;stroke-linejoin:miter;stroke-width:3;"/>
   </g>
   <g id="patch_6">
    <path d="M 20.675 27.8 
L 421.2 27.8 
" style="fill:none;stroke:#f0f0f0;stroke-linecap:square;stroke-linejoin:miter;stroke-width:3;"/>
   </g>
   <g id="text_10">
    <!-- Precipitation -->
    <defs>
     <path d="M 19.671875 64.796875 
L 19.671875 37.40625 
L 32.078125 37.40625 
Q 38.96875 37.40625 42.71875 40.96875 
Q 46.484375 44.53125 46.484375 51.125 
Q 46.484375 57.671875 42.71875 61.234375 
Q 38.96875 64.796875 32.078125 64.796875 
z
M 9.8125 72.90625 
L 32.078125 72.90625 
Q 44.34375 72.90625 50.609375 67.359375 
Q 56.890625 61.8125 56.890625 51.125 
Q 56.890625 40.328125 50.609375 34.8125 
Q 44.34375 29.296875 32.078125 29.296875 
L 19.671875 29.296875 
L 19.671875 0 
L 9.8125 0 
z
" id="DejaVuSans-50"/>
     <path d="M 41.109375 46.296875 
Q 39.59375 47.171875 37.8125 47.578125 
Q 36.03125 48 33.890625 48 
Q 26.265625 48 22.1875 43.046875 
Q 18.109375 38.09375 18.109375 28.8125 
L 18.109375 0 
L 9.078125 0 
L 9.078125 54.6875 
L 18.109375 54.6875 
L 18.109375 46.1875 
Q 20.953125 51.171875 25.484375 53.578125 
Q 30.03125 56 36.53125 56 
Q 37.453125 56 38.578125 55.875 
Q 39.703125 55.765625 41.0625 55.515625 
z
" id="DejaVuSans-72"/>
     <path d="M 48.78125 52.59375 
L 48.78125 44.1875 
Q 44.96875 46.296875 41.140625 47.34375 
Q 37.3125 48.390625 33.40625 48.390625 
Q 24.65625 48.390625 19.8125 42.84375 
Q 14.984375 37.3125 14.984375 27.296875 
Q 14.984375 17.28125 19.8125 11.734375 
Q 24.65625 6.203125 33.40625 6.203125 
Q 37.3125 6.203125 41.140625 7.25 
Q 44.96875 8.296875 48.78125 10.40625 
L 48.78125 2.09375 
Q 45.015625 0.34375 40.984375 -0.53125 
Q 36.96875 -1.421875 32.421875 -1.421875 
Q 20.0625 -1.421875 12.78125 6.34375 
Q 5.515625 14.109375 5.515625 27.296875 
Q 5.515625 40.671875 12.859375 48.328125 
Q 20.21875 56 33.015625 56 
Q 37.15625 56 41.109375 55.140625 
Q 45.0625 54.296875 48.78125 52.59375 
z
" id="DejaVuSans-63"/>
     <path d="M 9.421875 54.6875 
L 18.40625 54.6875 
L 18.40625 0 
L 9.421875 0 
z
M 9.421875 75.984375 
L 18.40625 75.984375 
L 18.40625 64.59375 
L 9.421875 64.59375 
z
" id="DejaVuSans-69"/>
     <path d="M 18.109375 8.203125 
L 18.109375 -20.796875 
L 9.078125 -20.796875 
L 9.078125 54.6875 
L 18.109375 54.6875 
L 18.109375 46.390625 
Q 20.953125 51.265625 25.265625 53.625 
Q 29.59375 56 35.59375 56 
Q 45.5625 56 51.78125 48.09375 
Q 58.015625 40.1875 58.015625 27.296875 
Q 58.015625 14.40625 51.78125 6.484375 
Q 45.5625 -1.421875 35.59375 -1.421875 
Q 29.59375 -1.421875 25.265625 0.953125 
Q 20.953125 3.328125 18.109375 8.203125 
z
M 48.6875 27.296875 
Q 48.6875 37.203125 44.609375 42.84375 
Q 40.53125 48.484375 33.40625 48.484375 
Q 26.265625 48.484375 22.1875 42.84375 
Q 18.109375 37.203125 18.109375 27.296875 
Q 18.109375 17.390625 22.1875 11.75 
Q 26.265625 6.109375 33.40625 6.109375 
Q 40.53125 6.109375 44.609375 11.75 
Q 48.6875 17.390625 48.6875 27.296875 
z
" id="DejaVuSans-70"/>
     <path d="M 30.609375 48.390625 
Q 23.390625 48.390625 19.1875 42.75 
Q 14.984375 37.109375 14.984375 27.296875 
Q 14.984375 17.484375 19.15625 11.84375 
Q 23.34375 6.203125 30.609375 6.203125 
Q 37.796875 6.203125 41.984375 11.859375 
Q 46.1875 17.53125 46.1875 27.296875 
Q 46.1875 37.015625 41.984375 42.703125 
Q 37.796875 48.390625 30.609375 48.390625 
z
M 30.609375 56 
Q 42.328125 56 49.015625 48.375 
Q 55.71875 40.765625 55.71875 27.296875 
Q 55.71875 13.875 49.015625 6.21875 
Q 42.328125 -1.421875 30.609375 -1.421875 
Q 18.84375 -1.421875 12.171875 6.21875 
Q 5.515625 13.875 5.515625 27.296875 
Q 5.515625 40.765625 12.171875 48.375 
Q 18.84375 56 30.609375 56 
z
" id="DejaVuSans-6f"/>
     <path d="M 54.890625 33.015625 
L 54.890625 0 
L 45.90625 0 
L 45.90625 32.71875 
Q 45.90625 40.484375 42.875 44.328125 
Q 39.84375 48.1875 33.796875 48.1875 
Q 26.515625 48.1875 22.3125 43.546875 
Q 18.109375 38.921875 18.109375 30.90625 
L 18.109375 0 
L 9.078125 0 
L 9.078125 54.6875 
L 18.109375 54.6875 
L 18.109375 46.1875 
Q 21.34375 51.125 25.703125 53.5625 
Q 30.078125 56 35.796875 56 
Q 45.21875 56 50.046875 50.171875 
Q 54.890625 44.34375 54.890625 33.015625 
z
" id="DejaVuSans-6e"/>
    </defs>
    <g transform="translate(175.652875 21.8)scale(0.144 -0.144)">
     <use xlink:href="#DejaVuSans-50"/>
     <use x="60.287109" xlink:href="#DejaVuSans-72"/>
     <use x="101.369141" xlink:href="#DejaVuSans-65"/>
     <use x="162.892578" xlink:href="#DejaVuSans-63"/>
     <use x="217.873047" xlink:href="#DejaVuSans-69"/>
     <use x="245.65625" xlink:href="#DejaVuSans-70"/>
     <use x="309.132812" xlink:href="#DejaVuSans-69"/>
     <use x="336.916016" xlink:href="#DejaVuSans-74"/>
     <use x="376.125" xlink:href="#DejaVuSans-61"/>
     <use x="437.404297" xlink:href="#DejaVuSans-74"/>
     <use x="476.613281" xlink:href="#DejaVuSans-69"/>
     <use x="504.396484" xlink:href="#DejaVuSans-6f"/>
     <use x="565.578125" xlink:href="#DejaVuSans-6e"/>
    </g>
   </g>
   <g id="legend_1">
    <g id="patch_7">
     <path d="M 172.115625 50.478125 
L 269.759375 50.478125 
Q 271.759375 50.478125 271.759375 48.478125 
L 271.759375 34.8 
Q 271.759375 32.8 269.759375 32.8 
L 172.115625 32.8 
Q 170.115625 32.8 170.115625 34.8 
L 170.115625 48.478125 
Q 170.115625 50.478125 172.115625 50.478125 
z
" style="fill:#f0f0f0;opacity:0.8;stroke:#cccccc;stroke-linejoin:miter;stroke-width:0.5;"/>
    </g>
    <g id="line2d_28">
     <path d="M 174.115625 40.898437 
L 194.115625 40.898437 
" style="fill:none;stroke:#008fd5;stroke-width:4;"/>
    </g>
    <g id="line2d_29"/>
    <g id="text_11">
     <!-- precidipation -->
     <g transform="translate(202.115625 44.398437)scale(0.1 -0.1)">
      <use xlink:href="#DejaVuSans-70"/>
      <use x="63.476562" xlink:href="#DejaVuSans-72"/>
      <use x="104.558594" xlink:href="#DejaVuSans-65"/>
      <use x="166.082031" xlink:href="#DejaVuSans-63"/>
      <use x="221.0625" xlink:href="#DejaVuSans-69"/>
      <use x="248.845703" xlink:href="#DejaVuSans-64"/>
      <use x="312.322266" xlink:href="#DejaVuSans-69"/>
      <use x="340.105469" xlink:href="#DejaVuSans-70"/>
      <use x="403.582031" xlink:href="#DejaVuSans-61"/>
      <use x="464.861328" xlink:href="#DejaVuSans-74"/>
      <use x="504.070312" xlink:href="#DejaVuSans-69"/>
      <use x="531.853516" xlink:href="#DejaVuSans-6f"/>
      <use x="593.035156" xlink:href="#DejaVuSans-6e"/>
     </g>
    </g>
   </g>
  </g>
 </g>
 <defs>
  <clipPath id="p43d8513310">
   <rect height="228.9" width="400.525" x="20.675" y="27.8"/>
  </clipPath>
 </defs>
</svg>
